<!--?xml version="1.0" encoding="utf-8"?-->
<!-- Generator: Adobe Illustrator 18.1.1, SVG Export Plug-In . SVG Version: 6.00 Build 0)  -->

<svg version="1.1" id="_x31_0" xmlns="http://www.w3.org/2000/svg" xmlns:xlink="http://www.w3.org/1999/xlink" x="0px" y="0px" viewBox="0 0 512 512" style="width: 32px; height: 32px; opacity: 1;" xml:space="preserve">
<style type="text/css">
	.st0{fill:#374149;}
</style>
<g>
	<path class="st0" d="M462.767,282.121c-12.165-6.387-25.106-9.77-38.001-10.414l-7.266-47.238l18.211-15.008l7.129-5.793
		l-0.058-0.035l0.133-0.11l-22.098-11.602l-16.114,13.274l-76.11-39.961l-37.422-19.742l47.882-30.75l23.93-15.274l-0.078-0.043
		l0.156-0.102l-75.801-39.797c-7.566-3.977-16.418-4.188-23.683-0.539c-12.149,6.09-21.93,19.84-14.231,40.242
		c0.207,0.562,0.29,1.074,0.528,1.648l0.007-0.007c0.024,0.054,0.031,0.102,0.051,0.156l21.015-8.836l0.039-0.016l0,0l0.149-0.062
		c-3.883-9.222-0.203-11.074,2.75-12.566c0.402-0.199,1.485-0.277,2.68,0.348l27.453,14.414l13.298,7.07l-49.63,31.871l-6.21,3.981
		l-40.446,25.981c-7.535-9.118-16.965-16.926-28.082-22.762c-44.926-23.594-100.664-6.234-124.254,38.692
		c-23.594,44.93-6.234,100.668,38.696,124.258c44.922,23.59,100.664,6.234,124.258-38.695c13.93-26.535,13.582-56.844,1.699-82.07
		l22.661-14.55l9.297-5.891l23.039,149.786l44.125,23.172C318.825,377,336.95,423.934,377.208,445.07
		c44.926,23.59,100.661,6.234,124.254-38.695C525.052,361.449,507.697,305.71,462.767,282.121z M478.181,394.152
		c-16.871,32.141-56.617,44.516-88.754,27.641c-27.41-14.39-40.458-45.43-33.211-74.18l78.344,41.137
		c3.695,1.942,8.023-1.152,7.39-5.274l-10.218-66.434l-2.813-18.578c7.367,1,14.672,3.286,21.621,6.934
		C482.685,322.273,495.056,362.015,478.181,394.152z M321.692,303.433l75.153-61.938l4.922,31.946
		c-23.89,4.848-45.707,19.078-59.504,40.863l-15.019-7.886L321.692,303.433z M410.81,332.32l2.902,19.5l-43.176-22.672l-4.867-2.574
		c9.657-14.207,24.172-23.617,40.082-27.137L410.81,332.32z M385.395,221.109l-50.359,41.504l-27.539,22.582L289.93,170.914
		l68.801,36.125L385.395,221.109z M198.657,177.578l-49.711,31.926c-2.961,1.902-3.82,5.848-1.918,8.813l5.542,8.625
		c1.906,2.965,5.852,3.824,8.813,1.918l42.047-27.011l7.554-4.821c7.106,17.336,6.774,37.566-2.621,55.454
		c-16.871,32.141-56.614,44.516-88.75,27.641c-32.145-16.879-44.516-56.618-27.641-88.754
		c16.875-32.141,56.618-44.516,88.754-27.641c6.121,3.211,11.386,7.371,16.008,12.031
		C197.348,176.398,198.067,176.906,198.657,177.578z" style="fill: rgb(11, 1, 1);"></path>
	<path class="st0" d="M405.025,175.273l56.961,29.91c3.742,1.965,8.07,1.156,9.621-1.798l7.754-14.769
		c1.55-2.95-0.238-6.973-3.981-8.938l-59.074-25.883c-3.742-1.965-8.07-1.156-9.625,1.801l-5.637,10.734
		C399.497,169.288,401.286,173.308,405.025,175.273z" style="fill: rgb(11, 1, 1);"></path>
	<path class="st0" d="M229.227,301.8l-0.118-0.117l0,0l-0.113-0.114c-10.278,10.274-22.234,18.336-35.535,23.962
		c-27.535,11.648-59.473,11.648-87.008,0c-13.301-5.626-25.254-13.688-35.531-23.958c-10.274-10.278-18.336-22.23-23.958-35.535
		c-5.824-13.77-8.781-28.402-8.781-43.5c0-15.098,2.957-29.734,8.781-43.496L11.953,164.23l-0.015-0.008l0,0l-0.149-0.062
		C3.965,182.659,0,202.3,0,222.538c0,20.234,3.965,39.879,11.789,58.375c2.258,5.332,4.962,10.402,7.825,15.371
		c0.609,1.117,1.109,2.117,1.766,3.289h-2.286v72.914v0.062H0.371H0.313l0,0H0.156v82.645v0.254l0,0v0.161h80.192L60.301,372.55
		h-20.84v-28.106l0.118-20.648c1.449,1.59,2.812,3.246,4.343,4.777c13.766,13.77,29.805,24.578,47.657,32.13
		c18.508,7.824,38.145,11.793,58.379,11.793c20.234,0,39.875-3.969,58.379-11.793c17.469-7.387,33.168-17.942,46.734-31.29
		c0.262-0.254,0.55-0.473,0.812-0.726l-0.007-0.004c0.038-0.039,0.082-0.07,0.121-0.11L229.227,301.8z" style="fill: rgb(11, 1, 1);"></path>
</g>
</svg>
