<!--?xml version="1.0" encoding="utf-8"?-->
<!-- Generator: Adobe Illustrator 18.1.1, SVG Export Plug-In . SVG Version: 6.00 Build 0)  -->

<svg version="1.1" id="_x31_0" xmlns="http://www.w3.org/2000/svg" xmlns:xlink="http://www.w3.org/1999/xlink" x="0px" y="0px" viewBox="0 0 512 512" style="width: 32px; height: 32px; opacity: 1;" xml:space="preserve">
<style type="text/css">
	.st0{fill:#374149;}
</style>
<g>
	<path class="st0" d="M415.606,219.754c-14.39,0-28.039,3.164-40.313,8.852l-29.738-40.274l9.633-22.922l3.734-8.718l-0.07-0.004
		l0.07-0.16h-26.144l-8.473,20.156h-90.438l-43.934-0.074l10.746-18.926h1.266l0.621,0.078l-0.043-0.078h0.184l-13.004-22.89
		l-6.25-11.164h48.215c1.41,0,2.375,0.602,2.652,0.984c2.012,2.821,4.524,6.336-3.566,12.993l15.168,18.41l0.047,0.058h0.004
		l0.102,0.126c18.812-15.477,16.371-33.726,7.816-45.633c-4.961-6.922-13.274-11.031-22.222-11.031h-60.184l-29.359-0.078
		l0.043,0.078h-0.18l21.762,38.324l10.742,19.074h-1.082l-11.215,19.75l-3.82,6.719l-24.856,43.789
		c-11.43-4.789-23.976-7.438-37.129-7.438c-53.152,0-96.39,43.242-96.39,96.39c0,53.157,43.238,96.398,96.39,96.398
		c53.157,0,96.394-43.242,96.394-96.398c0-31.39-15.078-59.328-38.386-76.937l14.043-24.731l5.637-9.797l94.305,127.699h52.206
		c7.73,45.462,47.387,80.164,95.016,80.164c53.152,0,96.394-43.242,96.394-96.398C512,262.996,468.758,219.754,415.606,219.754z
		 M295.149,308.219l39.538-94.043l20.122,27.234c-19.793,16.126-33.098,39.954-35.286,66.867h-17.66L295.149,308.219z
		 M314.145,200.844l-26.57,63.196l-14.465,34.179l-71.942-97.434h81.301L314.145,200.844z M347.203,308.262
		c2.039-17.875,10.914-33.668,23.957-44.68l20.664,27.977l12.23,16.718h-51.359L347.203,308.262z M415.606,384.996
		c-32.43,0-59.645-22.422-66.926-52.618h92.691c4.371,0,6.879-4.976,4.285-8.492l-41.914-56.75l-11.57-15.742
		c7.32-2.656,15.203-4.102,23.434-4.102c38.023,0,68.851,30.828,68.851,68.851C484.457,354.168,453.629,384.996,415.606,384.996z
		 M119.77,251.399l-30.562,53.824c-1.821,3.211-0.695,7.289,2.515,9.11l9.34,5.297c3.211,1.828,7.289,0.703,9.11-2.508
		l25.867-45.586l4.625-8.09c15.035,12.614,24.578,31.539,24.578,52.699c0,38.024-30.828,68.852-68.852,68.852
		c-38.023,0-68.851-30.828-68.851-68.852c0-38.023,30.828-68.851,68.851-68.851c7.606,0,14.914,1.289,21.754,3.566
		C118.683,251.051,119.23,251.196,119.77,251.399z" style="fill: rgb(11, 1, 1);"></path>
	<path class="st0" d="M310.031,148.785h67.39c4.422,0,8.047-2.859,8.047-6.351v-17.477c0-3.492-3.625-6.351-8.047-6.351
		l-67.39,4.766c-4.426,0-8.047,2.859-8.047,6.351v12.711C301.984,145.926,305.606,148.785,310.031,148.785z" style="fill: rgb(11, 1, 1);"></path>
</g>
</svg>
